<svg xmlns="http://www.w3.org/2000/svg" viewBox="0 0 1600 1200" role="img" aria-label="Visuel Aquarelle LINIA">
  <defs>
    <linearGradient id="paper" x1="0" x2="1" y1="0" y2="1"><stop stop-color="#F4E3D2"/><stop offset="1" stop-color="#FFF5E8"/></linearGradient>
    <filter id="grain"><feTurbulence type="fractalNoise" baseFrequency="0.85" numOctaves="2" stitchTiles="stitch"/><feColorMatrix type="saturate" values="0"/><feComponentTransfer><feFuncA type="table" tableValues="0 .08"/></feComponentTransfer></filter>
  </defs>
  <rect width="1600" height="1200" fill="url(#paper)"/>
  <rect width="1600" height="1200" filter="url(#grain)" opacity=".45"/>
  <circle cx="1260" cy="250" r="165" fill="#8B78C8" opacity=".32"/>
  <circle cx="310" cy="890" r="245" fill="#8B78C8" opacity=".18"/>
  <path d="M160 720 C410 420 640 900 870 560 S1260 500 1450 260" fill="none" stroke="#8B78C8" stroke-width="30" stroke-linecap="round" opacity=".45"/>
  <g fill="none" stroke="#5D694B" stroke-width="13" stroke-linecap="round" opacity=".55">
    <path d="M265 250c118 122 140 260 92 420"/>
    <path d="M345 410c-72-20-124-62-164-120"/>
    <path d="M366 504c82-10 152-42 224-112"/>
    <path d="M1180 810c-92-70-122-166-88-288"/>
    <path d="M1110 658c76 4 138 26 196 78"/>
  </g>
  <g fill="#8B78C8" opacity=".7">
    <circle cx="455" cy="315" r="28"/><circle cx="508" cy="342" r="20"/><circle cx="410" cy="372" r="18"/>
    <circle cx="1048" cy="410" r="24"/><circle cx="1102" cy="448" r="18"/><circle cx="998" cy="468" r="16"/>
  </g>
  <text x="115" y="1040" font-family="Georgia, 'Times New Roman', serif" font-size="94" fill="#2F3033" opacity=".76">Aquarelle</text>
  <text x="120" y="1125" font-family="Arial, sans-serif" font-size="34" fill="#5D694B" opacity=".85">LINIA · Là où la création commence</text>
</svg>